# xmcd
#
# Track frame offsets:
#	150
#	18108
#	35434
#	52458
#	65960
#	86658
#	98059
#	111784
#	126408
#	141259
#	155810
#	181385
#	196533
#	208083
#	221508
#	232308
#	245808
#	258183
#	271608
#	285782
#
# Disc length: 4030 seconds
#
# Revision: 1
# Processed by: cddbd v1.5.1PL0 Copyright (c) Steve Scherf et al.
# Submitted via: audiograbber 1.82.02
#
DISCID=2f0fbc14
DTITLE=Owen Blundell - Duelling Yodellers with Rex Dallas
DYEAR=1900
DGENRE=Country
TTITLE0=Duelling Yodellers
TTITLE1=Those Old Tex Morton Blues
TTITLE2=Dandenong Yodel
TTITLE3=Snowey River Yodel
TTITLE4=Blue Mountain Yodel
TTITLE5=Yodel Sweet Molly
TTITLE6=Chicken Yodel
TTITLE7=Lullaby Yodel Song
TTITLE8=A Yodel Puts Everything Right
TTITLE9=Demonstration Yodel
TTITLE10=Here's To The Aussie Yodel
TTITLE11=Jingle Bell Yodel
TTITLE12=Gambling Yodel
TTITLE13=The Water Mill
TTITLE14=The Shepards Yodel
TTITLE15=Dan Dan The Yodelling Man
TTITLE16=Shadows On The Trial
TTITLE17=The Jingling Yodel Song
TTITLE18=I'm  Gonna Ride To Heaven
TTITLE19=While I Was Making Love To You
EXTD=
EXTT0=
EXTT1=
EXTT2=
EXTT3=
EXTT4=
EXTT5=
EXTT6=
EXTT7=
EXTT8=
EXTT9=
EXTT10=
EXTT11=
EXTT12=
EXTT13=
EXTT14=
EXTT15=
EXTT16=
EXTT17=
EXTT18=
EXTT19=
PLAYORDER=
